<svg width="24" height="24" viewBox="0 0 24 24" fill="none" xmlns="http://www.w3.org/2000/svg">
<path d="M12 -0.00244141C5.38184 -0.00244141 -0.00244141 5.38184 -0.00244141 12C-0.00244141 18.6182 5.38184 24.0024 12 24.0024C18.6182 24.0024 24.0024 18.6182 24.0024 12C24.0024 5.38184 18.6182 -0.00244141 12 -0.00244141ZM13 20.6909V19.3945C13 18.8423 12.5522 18.3945 12 18.3945C11.4478 18.3945 11 18.8423 11 19.3945V20.6909C6.97253 20.23 3.77002 17.0275 3.30914 13H4.60547C5.15771 13 5.60547 12.5522 5.60547 12C5.60547 11.4478 5.15771 11 4.60547 11H3.30914C3.77002 6.97253 6.97253 3.77002 11 3.30914V4.60547C11 5.15771 11.4478 5.60547 12 5.60547C12.5522 5.60547 13 5.15771 13 4.60547V3.30914C17.0275 3.77002 20.23 6.97253 20.6909 11H19.3945C18.8423 11 18.3945 11.4478 18.3945 12C18.3945 12.5522 18.8423 13 19.3945 13H20.6909C20.23 17.0275 17.0275 20.23 13 20.6909Z" fill="#0B0B0B"/>
<path d="M14.9111 7.67432L11.5859 11H8.60107C8.04883 11 7.60107 11.4478 7.60107 12C7.60107 12.5522 8.04883 13 8.60107 13H12C12.2651 13 12.5195 12.8945 12.707 12.707L16.3252 9.08838C16.7158 8.69775 16.7158 8.06445 16.3252 7.67432C15.9346 7.28369 15.3018 7.28369 14.9111 7.67432Z" fill="#0B0B0B"/>
</svg>
