<svg width="29" height="27" viewBox="0 0 29 27" fill="none" xmlns="http://www.w3.org/2000/svg">
<path d="M28.1145 18.522L24.4089 4.78339C24.2831 4.31745 23.9621 3.92808 23.5284 3.7148L17.5347 0.775343C16.7898 0.410577 15.9022 0.63753 15.4254 1.3162L13.8296 3.58519C13.3462 4.27315 13.4501 5.21979 14.0713 5.78745L15.9187 7.47347C16.5853 8.07995 17.6025 8.05479 18.2369 7.41659L18.3512 7.30175C18.6262 7.54237 19.0112 7.7398 19.5072 7.7573L19.0862 14.0289C17.2076 13.1276 15.4757 12.9428 13.9297 13.4825C13.2439 13.7221 12.6653 14.0797 12.184 14.4795C10.2585 11.7768 7.88397 11.6368 6.18647 12.0262C3.696 12.5971 1.68295 14.6698 1.05623 17.3068C0.757093 18.5641 0.752171 19.8099 1.04147 21.0108C1.11748 21.328 1.18147 21.6053 1.23506 21.8503C1.56975 23.3717 2.52076 24.7159 3.84366 25.5395C4.7542 26.106 5.77358 26.397 6.80717 26.397C7.24959 26.397 7.69366 26.3434 8.13334 26.2357C9.07889 26.0032 9.97576 25.6576 10.8026 25.2081C12.2655 25.639 20.0115 27.5432 26.184 21.7392L27.2641 21.1825C27.8236 20.8949 28.1719 20.3239 28.1719 19.6934V18.9584C28.1719 18.8129 28.1528 18.6664 28.1145 18.522ZM9.77178 15.2265C9.63014 15.4928 9.30092 15.5962 9.0324 15.454C6.58022 14.1568 3.95412 16.8294 3.92733 16.8562C3.82014 16.9672 3.67741 17.023 3.53412 17.023C3.39741 17.023 3.26014 16.9716 3.15405 16.8693C2.93748 16.6593 2.93147 16.3132 3.14147 16.096C3.27162 15.961 6.3735 12.8093 9.54428 14.4877C9.8117 14.6293 9.91342 14.9596 9.77178 15.2265ZM23.0154 20.3305C20.7224 22.9375 18.2144 23.5773 16.3053 23.5773C14.4847 23.5773 13.2094 22.996 13.1832 22.9834C12.9103 22.8549 12.7933 22.5289 12.9218 22.2555C13.0497 21.9837 13.3751 21.865 13.648 21.9935C13.8356 22.08 18.2691 24.07 22.1935 19.6086C22.3937 19.3811 22.7398 19.3603 22.9651 19.5589C23.1926 19.7585 23.2151 20.1041 23.0154 20.3305Z" fill="white"/>
</svg>
