<svg width="23" height="15" viewBox="0 0 23 15" fill="none" xmlns="http://www.w3.org/2000/svg">
<path d="M15.6665 6.45831C17.3957 6.45831 18.7811 5.06248 18.7811 3.33331C18.7811 1.60415 17.3957 0.208313 15.6665 0.208313C13.9373 0.208313 12.5415 1.60415 12.5415 3.33331C12.5415 5.06248 13.9373 6.45831 15.6665 6.45831ZM7.33317 6.45831C9.06234 6.45831 10.4478 5.06248 10.4478 3.33331C10.4478 1.60415 9.06234 0.208313 7.33317 0.208313C5.604 0.208313 4.20817 1.60415 4.20817 3.33331C4.20817 5.06248 5.604 6.45831 7.33317 6.45831ZM7.33317 8.54165C4.90609 8.54165 0.0415039 9.7604 0.0415039 12.1875V14.7916H14.6248V12.1875C14.6248 9.7604 9.76025 8.54165 7.33317 8.54165ZM15.6665 8.54165C15.3644 8.54165 15.0207 8.56248 14.6561 8.59373C15.8644 9.46873 16.7082 10.6458 16.7082 12.1875V14.7916H22.9582V12.1875C22.9582 9.7604 18.0936 8.54165 15.6665 8.54165Z" fill="white"/>
</svg>
