<svg width="22" height="22" viewBox="0 0 22 22" fill="none" xmlns="http://www.w3.org/2000/svg">
<path d="M11 19.8C12.375 19.8 13.5438 19.3188 14.5063 18.3563C15.4688 17.3938 15.95 16.225 15.95 14.85C15.95 13.475 15.4688 12.3062 14.5063 11.3438C13.5438 10.3813 12.375 9.9 11 9.9C9.625 9.9 8.45625 10.3813 7.49375 11.3438C6.53125 12.3062 6.05 13.475 6.05 14.85C6.05 16.225 6.53125 17.3938 7.49375 18.3563C8.45625 19.3188 9.625 19.8 11 19.8ZM7.7825 8.47C8.14917 8.26833 8.53875 8.10792 8.95125 7.98875C9.36375 7.86958 9.78083 7.79167 10.2025 7.755L7.425 2.2H4.675L7.7825 8.47ZM14.2175 8.47L17.3525 2.2H14.575L11.7975 7.755C12.2192 7.79167 12.6362 7.86958 13.0487 7.98875C13.4612 8.10792 13.8508 8.26833 14.2175 8.47ZM4.84 18.48C4.52833 17.9483 4.28542 17.3754 4.11125 16.7612C3.93708 16.1471 3.85 15.51 3.85 14.85C3.85 14.19 3.93708 13.5529 4.11125 12.9388C4.28542 12.3246 4.52833 11.7517 4.84 11.22C4.07 11.4767 3.4375 11.9304 2.9425 12.5813C2.4475 13.2321 2.2 13.9883 2.2 14.85C2.2 15.7117 2.4475 16.4679 2.9425 17.1187C3.4375 17.7696 4.07 18.2233 4.84 18.48ZM17.16 18.48C17.93 18.2233 18.5625 17.7696 19.0575 17.1187C19.5525 16.4679 19.8 15.7117 19.8 14.85C19.8 13.9883 19.5525 13.2321 19.0575 12.5813C18.5625 11.9304 17.93 11.4767 17.16 11.22C17.4717 11.7517 17.7146 12.3246 17.8888 12.9388C18.0629 13.5529 18.15 14.19 18.15 14.85C18.15 15.51 18.0629 16.1471 17.8888 16.7612C17.7146 17.3754 17.4717 17.9483 17.16 18.48ZM11 22C10.2667 22 9.56542 21.8946 8.89625 21.6838C8.22708 21.4729 7.60833 21.1842 7.04 20.8175C6.875 20.8542 6.71 20.8771 6.545 20.8862C6.38 20.8954 6.20583 20.9 6.0225 20.9C4.35417 20.9 2.93333 20.3133 1.76 19.14C0.586667 17.9667 0 16.5458 0 14.8775C0 13.2825 0.531667 11.9167 1.595 10.78C2.65833 9.64333 3.96917 9.01083 5.5275 8.8825L1.1 0H8.8L11 4.4L13.2 0H20.9L16.5 8.8275C18.0583 8.97417 19.3646 9.61583 20.4188 10.7525C21.4729 11.8892 22 13.255 22 14.85C22 16.5367 21.4133 17.9667 20.24 19.14C19.0667 20.3133 17.6367 20.9 15.95 20.9C15.785 20.9 15.6154 20.8954 15.4412 20.8862C15.2671 20.8771 15.0975 20.8542 14.9325 20.8175C14.3642 21.1842 13.75 21.4729 13.09 21.6838C12.43 21.8946 11.7333 22 11 22ZM11 17.6L10.1475 15.7025L8.25 14.85L10.1475 13.9975L11 12.1L11.8525 13.9975L13.75 14.85L11.8525 15.7025L11 17.6Z" fill="#DCF5DB"/>
</svg>
