<svg width="18" height="20" viewBox="0 0 18 20" fill="none" xmlns="http://www.w3.org/2000/svg">
<ellipse cx="9" cy="9.89709" rx="9" ry="9.26471" fill="#0FF378"/>
<path fill-rule="evenodd" clip-rule="evenodd" d="M8.75357 6.65004L11.4663 8.69904C11.4665 8.69916 11.4667 8.69922 11.4669 8.69922V8.69922C11.4671 8.69922 11.4673 8.69929 11.4674 8.6994C11.8745 9.00666 12.1151 9.49523 12.1151 10.0149C12.1151 10.5347 11.8744 11.0233 11.4672 11.3306L8.75268 13.3798C8.27131 13.7446 7.63136 13.7993 7.09814 13.5212C6.56491 13.243 6.22932 12.6795 6.23047 12.0641V7.96573C6.2304 7.35066 6.56631 6.7878 7.09932 6.50986C7.63234 6.23192 8.27189 6.28611 8.75357 6.65004ZM8.2246 12.6374L10.9371 10.5886C10.9373 10.5885 10.9372 10.5882 10.937 10.5882V10.5882C10.9368 10.5882 10.9367 10.588 10.9369 10.5879C11.1141 10.454 11.2187 10.2412 11.2187 10.0149C11.2187 9.78844 11.1139 9.57552 10.9364 9.44163L8.22341 7.39245C8.106 7.30249 7.96371 7.25355 7.81735 7.25281C7.70813 7.25331 7.60057 7.28033 7.50342 7.33168C7.26922 7.45046 7.122 7.69701 7.12479 7.96574V12.0641C7.12469 12.3322 7.27112 12.5776 7.5035 12.6988C7.73588 12.8199 8.0147 12.7962 8.2246 12.6374Z" fill="#363736"/>
</svg>
