<svg width="25" height="25" viewBox="0 0 25 25" fill="none" xmlns="http://www.w3.org/2000/svg">
<g clip-path="url(#clip0_44_3423)">
<path d="M12.5 0C10.0277 0 7.61099 0.733112 5.55538 2.10663C3.49976 3.48015 1.89761 5.43238 0.951511 7.71646C0.00541608 10.0005 -0.242126 12.5139 0.24019 14.9386C0.722505 17.3634 1.91301 19.5907 3.66117 21.3388C5.40933 23.087 7.63661 24.2775 10.0614 24.7598C12.4861 25.2421 14.9995 24.9946 17.2835 24.0485C19.5676 23.1024 21.5199 21.5002 22.8934 19.4446C24.2669 17.389 25 14.9723 25 12.5C24.9964 9.18589 23.6783 6.00855 21.3349 3.66512C18.9915 1.3217 15.8141 0.00358446 12.5 0ZM12.5 20.8333C12.294 20.8333 12.0926 20.7722 11.9213 20.6578C11.75 20.5433 11.6165 20.3806 11.5376 20.1903C11.4588 20 11.4382 19.7905 11.4784 19.5884C11.5185 19.3864 11.6178 19.2008 11.7634 19.0551C11.9091 18.9094 12.0947 18.8102 12.2968 18.77C12.4988 18.7298 12.7083 18.7505 12.8986 18.8293C13.089 18.9081 13.2517 19.0416 13.3661 19.2129C13.4806 19.3843 13.5417 19.5856 13.5417 19.7917C13.5417 20.0679 13.4319 20.3329 13.2366 20.5282C13.0412 20.7236 12.7763 20.8333 12.5 20.8333ZM14.5104 13.0271C14.203 13.2193 13.9516 13.489 13.7816 13.8092C13.6115 14.1294 13.5288 14.4887 13.5417 14.851V15.625C13.5417 15.9013 13.4319 16.1662 13.2366 16.3616C13.0412 16.5569 12.7763 16.6667 12.5 16.6667C12.2237 16.6667 11.9588 16.5569 11.7634 16.3616C11.5681 16.1662 11.4583 15.9013 11.4583 15.625V14.851C11.443 14.1161 11.6246 13.3904 11.9843 12.7493C12.3441 12.1082 12.8688 11.575 13.5042 11.2052C13.889 10.9932 14.197 10.665 14.3841 10.2674C14.5712 9.86987 14.6278 9.42334 14.5458 8.99167C14.4647 8.58042 14.2628 8.2027 13.9659 7.90676C13.669 7.61082 13.2907 7.41009 12.8792 7.33021C12.5789 7.27463 12.27 7.28574 11.9745 7.36277C11.679 7.4398 11.404 7.58086 11.1691 7.77595C10.9341 7.97105 10.745 8.21542 10.6149 8.49174C10.4849 8.76807 10.4172 9.06961 10.4167 9.375C10.4167 9.65127 10.3069 9.91622 10.1116 10.1116C9.91622 10.3069 9.65127 10.4167 9.37501 10.4167C9.09874 10.4167 8.83379 10.3069 8.63844 10.1116C8.44309 9.91622 8.33334 9.65127 8.33334 9.375C8.3336 8.64011 8.52822 7.91836 8.89746 7.28297C9.2667 6.64758 9.79742 6.12114 10.4358 5.75707C11.0742 5.393 11.7975 5.20423 12.5323 5.20993C13.2672 5.21563 13.9875 5.41559 14.6201 5.78952C15.2528 6.16345 15.7753 6.69806 16.1346 7.3391C16.4939 7.98015 16.6773 8.70483 16.6662 9.43963C16.6551 10.1744 16.4498 10.8932 16.0712 11.5231C15.6926 12.1529 15.1541 12.6725 14.5104 13.0271Z" fill="#DCF5DB"/>
</g>
<defs>
<clipPath id="clip0_44_3423">
<rect width="25" height="25" fill="white"/>
</clipPath>
</defs>
</svg>
