<svg width="204" height="225" viewBox="0 0 204 225" fill="none" xmlns="http://www.w3.org/2000/svg">
<g clip-path="url(#clip0_145_28284)">
<path d="M178.043 41.2607C178.029 41.1275 178.091 40.9978 178.204 40.926C178.317 40.8543 178.461 40.8531 178.576 40.9228L180.703 42.2194L182.977 41.2022C183.099 41.1475 183.242 41.167 183.345 41.2525C183.448 41.3379 183.494 41.4745 183.463 41.6048L182.887 44.0284L184.557 45.8767C184.647 45.976 184.672 46.1178 184.623 46.2423C184.574 46.3669 184.458 46.4526 184.324 46.4634L181.841 46.6646L180.6 48.8241C180.533 48.9402 180.406 49.0084 180.272 48.9999C180.139 48.9914 180.021 48.9077 179.97 48.7841L179.011 46.485L176.574 45.9713C176.443 45.9436 176.339 45.844 176.305 45.7142C176.272 45.5844 176.315 45.4471 176.417 45.3598L178.307 43.7376L178.043 41.2607Z" fill="#6ABE6A"/>
<path d="M183.345 41.2525C183.242 41.167 183.099 41.1476 182.977 41.2023L180.703 42.2194L178.576 40.9228C178.461 40.8531 178.317 40.8543 178.204 40.9261C178.184 40.9386 181.841 46.6647 181.841 46.6647L184.324 46.4634C184.458 46.4526 184.573 46.3669 184.623 46.2424C184.672 46.1179 184.647 45.9761 184.557 45.8767L182.887 44.0284L183.463 41.6049C183.494 41.4745 183.448 41.3379 183.345 41.2525Z" fill="#0FF378"/>
</g>
<g clip-path="url(#clip1_145_28284)">
<path d="M175.908 173.793C176.041 173.774 176.173 173.832 176.249 173.942C176.325 174.052 176.332 174.196 176.266 174.313L175.053 176.488L176.157 178.721C176.216 178.842 176.202 178.985 176.121 179.091C176.039 179.198 175.904 179.249 175.773 179.223L173.329 178.741L171.546 180.48C171.451 180.574 171.31 180.605 171.184 180.56C171.057 180.516 170.967 180.403 170.951 180.27L170.655 177.797L168.449 176.639C168.33 176.577 168.257 176.453 168.261 176.319C168.264 176.185 168.343 176.065 168.465 176.008L170.725 174.962L171.145 172.507C171.167 172.375 171.263 172.267 171.391 172.229C171.52 172.19 171.659 172.228 171.75 172.327L173.443 174.153L175.908 173.793Z" fill="#6ABE6A"/>
<path d="M176.121 179.091C176.202 178.985 176.216 178.842 176.157 178.721L175.053 176.488L176.267 174.313C176.332 174.196 176.325 174.052 176.249 173.942C176.236 173.923 170.655 177.797 170.655 177.797L170.951 180.27C170.967 180.403 171.057 180.516 171.184 180.56C171.31 180.605 171.451 180.574 171.546 180.48L173.329 178.741L175.773 179.223C175.905 179.249 176.039 179.198 176.121 179.091Z" fill="#0FF378"/>
</g>
<g clip-path="url(#clip2_145_28284)">
<path d="M189.263 114.546C189.332 114.431 189.46 114.365 189.593 114.376C189.727 114.387 189.842 114.473 189.892 114.597L190.807 116.914L193.235 117.473C193.365 117.503 193.467 117.605 193.498 117.735C193.529 117.865 193.483 118.002 193.38 118.087L191.46 119.674L191.678 122.155C191.69 122.289 191.625 122.417 191.51 122.487C191.396 122.556 191.252 122.555 191.139 122.483L189.036 121.147L186.744 122.122C186.621 122.174 186.478 122.152 186.377 122.065C186.275 121.977 186.232 121.84 186.265 121.71L186.886 119.298L185.251 117.419C185.163 117.318 185.14 117.175 185.192 117.052C185.244 116.928 185.361 116.845 185.495 116.836L187.981 116.682L189.263 114.546Z" fill="#6ABE6A"/>
<path d="M193.498 117.735C193.468 117.605 193.365 117.503 193.235 117.473L190.807 116.914L189.892 114.597C189.843 114.473 189.727 114.387 189.593 114.376C189.57 114.374 189.037 121.147 189.037 121.147L191.139 122.483C191.252 122.555 191.396 122.557 191.511 122.487C191.625 122.417 191.69 122.289 191.678 122.155L191.46 119.674L193.38 118.087C193.483 118.002 193.529 117.865 193.498 117.735Z" fill="#0FF378"/>
</g>
<g clip-path="url(#clip3_145_28284)">
<path d="M56.9417 6.71154C57.0333 6.79278 57.0708 6.91896 57.0385 7.03705C57.0061 7.15514 56.9096 7.24461 56.7894 7.26787L54.5544 7.70048L53.6438 9.78683C53.5948 9.89903 53.4864 9.97368 53.3641 9.97943C53.2418 9.98516 53.1269 9.92098 53.0676 9.81387L51.9656 7.822L49.6999 7.60065C49.5781 7.58875 49.4736 7.5087 49.4303 7.39417C49.3871 7.27965 49.4126 7.15049 49.4962 7.06103L51.05 5.39739L50.5604 3.1742C50.5341 3.05464 50.5779 2.9305 50.6734 2.85398C50.769 2.77746 50.8997 2.76183 51.0106 2.81364L53.073 3.77733L55.0361 2.62471C55.1416 2.56273 55.2732 2.56604 55.3755 2.63328C55.4778 2.70051 55.5331 2.82 55.5181 2.9415L55.2389 5.20074L56.9417 6.71154Z" fill="#6ABE6A"/>
<path d="M53.3641 9.9794C53.4864 9.97367 53.5949 9.899 53.6438 9.7868L54.5545 7.70045L56.7894 7.26785C56.9096 7.24458 57.0062 7.15511 57.0385 7.03702C57.0442 7.01634 51.05 5.39734 51.05 5.39734L49.4962 7.061C49.4126 7.15046 49.3871 7.27962 49.4303 7.39414C49.4736 7.50867 49.5781 7.5887 49.6999 7.60061L51.9656 7.82197L53.0676 9.81384C53.1269 9.92098 53.2419 9.98516 53.3641 9.9794Z" fill="#0FF378"/>
</g>
<g clip-path="url(#clip4_145_28284)">
<path d="M7.11935 101.006C7.2274 100.926 7.37104 100.915 7.48987 100.977C7.6087 101.039 7.68209 101.163 7.67919 101.297L7.62545 103.788L9.64655 105.244C9.75524 105.322 9.81003 105.455 9.78792 105.587C9.76579 105.719 9.67059 105.828 9.54233 105.866L7.15719 106.585L6.39689 108.957C6.35601 109.084 6.24624 109.178 6.11375 109.197C5.98127 109.217 5.84902 109.16 5.77264 109.05L4.3523 107.004L1.86126 107.014C1.72731 107.014 1.60466 106.939 1.54489 106.819C1.48512 106.699 1.49861 106.555 1.57966 106.449L3.08698 104.465L2.30778 102.099C2.26588 101.972 2.29984 101.832 2.3954 101.738C2.49094 101.644 2.63152 101.613 2.758 101.657L5.10993 102.478L7.11935 101.006Z" fill="#6ABE6A"/>
<path d="M9.78777 105.587C9.8099 105.455 9.75509 105.322 9.6464 105.244L7.6253 103.788L7.67904 101.297C7.68193 101.163 7.60855 101.039 7.48972 100.977C7.46891 100.967 4.35211 107.004 4.35211 107.004L5.77247 109.05C5.84886 109.16 5.9811 109.217 6.11358 109.197C6.24608 109.178 6.35583 109.084 6.39672 108.957L7.15703 106.585L9.54217 105.866C9.67046 105.828 9.76567 105.719 9.78777 105.587Z" fill="#0FF378"/>
</g>
<g clip-path="url(#clip5_145_28284)">
<path d="M15.5346 179.399C15.5147 179.32 15.541 179.237 15.6025 179.185C15.664 179.132 15.7499 179.119 15.8243 179.151L17.2067 179.743L18.4785 178.941C18.5469 178.897 18.6339 178.897 18.7029 178.939C18.7719 178.981 18.8109 179.059 18.8036 179.14L18.6672 180.637L19.8238 181.599C19.886 181.651 19.9134 181.733 19.8946 181.812C19.8757 181.89 19.8139 181.952 19.735 181.969L18.2683 182.303L17.7113 183.7C17.6813 183.775 17.6113 183.826 17.5307 183.833C17.4501 183.839 17.3728 183.799 17.3314 183.73L16.5613 182.438L15.0604 182.34C14.9797 182.335 14.909 182.284 14.878 182.209C14.847 182.135 14.8611 182.049 14.9144 181.988L15.9052 180.856L15.5346 179.399Z" fill="#6ABE6A"/>
<path d="M18.7028 178.939C18.6339 178.897 18.5469 178.897 18.4785 178.941L17.2066 179.743L15.8243 179.151C15.7499 179.119 15.6639 179.132 15.6024 179.185C15.5917 179.194 18.2683 182.303 18.2683 182.303L19.735 181.969C19.8139 181.952 19.8757 181.89 19.8946 181.812C19.9134 181.733 19.886 181.651 19.8238 181.599L18.6672 180.637L18.8035 179.14C18.8109 179.059 18.7718 178.981 18.7028 178.939Z" fill="#0FF378"/>
</g>
<g clip-path="url(#clip6_145_28284)">
<path d="M146.992 206.855C146.972 206.776 146.998 206.693 147.059 206.641C147.121 206.588 147.207 206.575 147.281 206.607L148.664 207.199L149.936 206.397C150.004 206.353 150.091 206.353 150.16 206.395C150.229 206.437 150.268 206.515 150.261 206.596L150.124 208.093L151.281 209.055C151.343 209.107 151.37 209.189 151.352 209.268C151.333 209.346 151.271 209.408 151.192 209.426L149.725 209.759L149.168 211.156C149.138 211.231 149.068 211.283 148.988 211.289C148.907 211.295 148.83 211.255 148.788 211.186L148.018 209.894L146.517 209.796C146.437 209.791 146.366 209.74 146.335 209.665C146.304 209.591 146.318 209.505 146.371 209.444L147.362 208.312L146.992 206.855Z" fill="#6ABE6A"/>
<path d="M150.16 206.395C150.091 206.353 150.004 206.353 149.936 206.397L148.664 207.2L147.281 206.607C147.207 206.575 147.121 206.588 147.059 206.641C147.049 206.65 149.725 209.759 149.725 209.759L151.192 209.426C151.271 209.408 151.333 209.346 151.352 209.268C151.37 209.189 151.343 209.107 151.281 209.055L150.124 208.093L150.261 206.596C150.268 206.515 150.229 206.437 150.16 206.395Z" fill="#0FF378"/>
</g>
<g clip-path="url(#clip7_145_28284)">
<path d="M192.528 156.114C192.508 156.036 192.534 155.953 192.596 155.9C192.657 155.848 192.743 155.835 192.817 155.867L194.2 156.459L195.472 155.656C195.54 155.613 195.627 155.612 195.696 155.655C195.765 155.697 195.804 155.775 195.797 155.855L195.66 157.353L196.817 158.315C196.879 158.366 196.907 158.449 196.888 158.527C196.869 158.606 196.807 158.667 196.728 158.685L195.261 159.018L194.704 160.415C194.674 160.491 194.604 160.542 194.524 160.549C194.443 160.555 194.366 160.515 194.325 160.446L193.554 159.154L192.054 159.056C191.973 159.05 191.902 159 191.871 158.925C191.84 158.85 191.854 158.764 191.908 158.704L192.898 157.572L192.528 156.114Z" fill="#6ABE6A"/>
<path d="M195.696 155.655C195.627 155.612 195.54 155.613 195.472 155.656L194.2 156.459L192.817 155.867C192.743 155.835 192.657 155.848 192.596 155.9C192.585 155.91 195.261 159.018 195.261 159.018L196.728 158.685C196.807 158.667 196.869 158.606 196.888 158.527C196.907 158.449 196.879 158.366 196.817 158.315L195.66 157.353L195.797 155.855C195.804 155.775 195.765 155.697 195.696 155.655Z" fill="#0FF378"/>
</g>
<g clip-path="url(#clip8_145_28284)">
<path d="M71.7123 219.489C71.783 219.449 71.8699 219.453 71.9364 219.499C72.003 219.545 72.0377 219.625 72.0259 219.705L71.8073 221.193L72.9091 222.217C72.9684 222.272 72.9912 222.356 72.9681 222.433C72.9449 222.511 72.8798 222.569 72.8001 222.582L71.3173 222.834L70.6841 224.198C70.6501 224.272 70.5773 224.319 70.4965 224.321C70.4156 224.323 70.3407 224.279 70.3031 224.207L69.6054 222.875L68.1122 222.695C68.0319 222.685 67.9641 222.63 67.9372 222.554C67.9104 222.478 67.9292 222.393 67.9858 222.335L69.0374 221.26L68.7477 219.784C68.7321 219.704 68.7629 219.623 68.8272 219.574C68.8915 219.525 68.9781 219.517 69.0505 219.552L70.3982 220.22L71.7123 219.489Z" fill="#6ABE6A"/>
<path d="M72.968 222.434C72.9911 222.356 72.9683 222.272 72.909 222.217L71.8072 221.193L72.0258 219.705C72.0376 219.625 72.0029 219.545 71.9363 219.499C71.9247 219.491 69.6053 222.875 69.6053 222.875L70.303 224.208C70.3406 224.279 70.4155 224.323 70.4964 224.321C70.5772 224.319 70.65 224.272 70.684 224.198L71.3172 222.834L72.8 222.582C72.8797 222.569 72.9449 222.511 72.968 222.434Z" fill="#0FF378"/>
</g>
<g clip-path="url(#clip9_145_28284)">
<path d="M106.518 203.109C106.597 203.126 106.66 203.185 106.68 203.264C106.701 203.342 106.675 203.425 106.614 203.478L105.477 204.463L105.644 205.958C105.653 206.038 105.616 206.117 105.548 206.16C105.48 206.204 105.393 206.205 105.323 206.163L104.035 205.387L102.665 206.008C102.592 206.041 102.506 206.03 102.443 205.978C102.38 205.927 102.352 205.845 102.371 205.766L102.711 204.301L101.698 203.19C101.643 203.13 101.627 203.045 101.657 202.969C101.686 202.894 101.756 202.842 101.836 202.835L103.335 202.706L104.078 201.399C104.118 201.328 104.195 201.287 104.275 201.291C104.356 201.296 104.427 201.346 104.459 201.421L105.044 202.806L106.518 203.109Z" fill="#6ABE6A"/>
<path d="M105.548 206.16C105.616 206.117 105.653 206.038 105.644 205.958L105.477 204.463L106.614 203.478C106.675 203.425 106.701 203.342 106.68 203.264C106.677 203.25 102.711 204.301 102.711 204.301L102.371 205.766C102.352 205.845 102.38 205.927 102.443 205.978C102.506 206.03 102.592 206.041 102.665 206.008L104.035 205.387L105.323 206.163C105.393 206.205 105.48 206.204 105.548 206.16Z" fill="#0FF378"/>
</g>
<g clip-path="url(#clip10_145_28284)">
<path d="M64.1917 185.755C64.3266 185.679 64.4925 185.687 64.6197 185.775C64.7468 185.863 64.813 186.015 64.7906 186.168L64.373 189.01L66.4772 190.965C66.5904 191.07 66.634 191.23 66.5898 191.378C66.5456 191.526 66.4212 191.636 66.2689 191.662L63.4373 192.143L62.2282 194.749C62.1632 194.889 62.0242 194.98 61.8698 194.983C61.7154 194.987 61.5723 194.903 61.5006 194.766L60.1681 192.222L57.3166 191.877C57.1632 191.858 57.0337 191.754 56.9825 191.608C56.9312 191.463 56.9672 191.301 57.0752 191.19L59.0833 189.137L58.5301 186.318C58.5004 186.167 58.5593 186.011 58.682 185.917C58.8048 185.824 58.9701 185.808 59.1085 185.876L61.6821 187.152L64.1917 185.755Z" fill="#6ABE6A"/>
<path d="M66.5899 191.378C66.6341 191.23 66.5905 191.07 66.4773 190.965L64.3731 189.01L64.7907 186.168C64.8131 186.015 64.7469 185.863 64.6198 185.775C64.5975 185.76 60.1682 192.222 60.1682 192.222L61.5007 194.766C61.5723 194.903 61.7155 194.987 61.8699 194.983C62.0243 194.98 62.1632 194.889 62.2282 194.749L63.4373 192.143L66.269 191.662C66.4213 191.636 66.5457 191.526 66.5899 191.378Z" fill="#0FF378"/>
</g>
<g clip-path="url(#clip11_145_28284)">
<path d="M26.5824 139.047C26.6496 138.908 26.7899 138.819 26.9444 138.817C27.0988 138.816 27.2406 138.903 27.3102 139.041L28.6032 141.605L31.4491 141.994C31.6021 142.015 31.73 142.121 31.779 142.267C31.828 142.414 31.7895 142.575 31.6799 142.684L29.6403 144.707L30.1499 147.533C30.1773 147.685 30.1161 147.84 29.9919 147.931C29.8677 148.023 29.7021 148.037 29.5648 147.966L27.0112 146.651L24.4803 148.009C24.3442 148.082 24.1785 148.072 24.0527 147.982C23.927 147.892 23.8631 147.739 23.8879 147.587L24.3493 144.752L22.2755 142.764C22.164 142.658 22.1228 142.497 22.1693 142.349C22.2157 142.202 22.3418 142.094 22.4945 142.07L25.3333 141.633L26.5824 139.047Z" fill="#6ABE6A"/>
<path d="M31.7788 142.267C31.7298 142.121 31.6019 142.015 31.4489 141.994L28.603 141.605L27.31 139.041C27.2404 138.903 27.0986 138.816 26.9442 138.817C26.9171 138.818 27.011 146.651 27.011 146.651L29.5646 147.966C29.7019 148.037 29.8675 148.023 29.9917 147.932C30.1159 147.84 30.1771 147.685 30.1497 147.533L29.64 144.707L31.6797 142.684C31.7894 142.576 31.8278 142.414 31.7788 142.267Z" fill="#0FF378"/>
</g>
<g clip-path="url(#clip12_145_28284)">
<path d="M191.96 87.2466C191.934 87.1499 191.966 87.0472 192.041 86.9815C192.117 86.9158 192.223 86.8987 192.315 86.9373L194.03 87.6545L195.594 86.648C195.678 86.5938 195.785 86.5921 195.871 86.6436C195.957 86.695 196.006 86.7907 195.998 86.8903L195.846 88.7434L197.286 89.9192C197.364 89.9824 197.398 90.0841 197.376 90.1815C197.354 90.279 197.278 90.3553 197.18 90.3783L195.371 90.8063L194.698 92.5395C194.662 92.6327 194.576 92.6973 194.476 92.7061C194.377 92.7149 194.281 92.6664 194.229 92.581L193.262 90.9924L191.406 90.8878C191.306 90.8822 191.218 90.8204 191.179 90.7284C191.14 90.6364 191.157 90.5301 191.222 90.4543L192.434 89.0445L191.96 87.2466Z" fill="#6ABE6A"/>
<path d="M195.871 86.6436C195.785 86.5921 195.678 86.5938 195.594 86.648L194.03 87.6545L192.315 86.9373C192.223 86.8987 192.116 86.9159 192.041 86.9815C192.028 86.993 195.371 90.8064 195.371 90.8064L197.18 90.3783C197.278 90.3553 197.353 90.279 197.376 90.1816C197.398 90.0841 197.363 89.9824 197.286 89.9192L195.846 88.7434L195.998 86.8903C196.006 86.7907 195.957 86.695 195.871 86.6436Z" fill="#0FF378"/>
</g>
<g clip-path="url(#clip13_145_28284)">
<path d="M154.147 1.94183C154.127 1.86344 154.154 1.78053 154.215 1.72796C154.277 1.6754 154.363 1.6623 154.437 1.69417L155.819 2.28672L157.091 1.48386C157.16 1.44068 157.247 1.44008 157.316 1.48231C157.385 1.52454 157.424 1.60226 157.416 1.68281L157.28 3.18066L158.437 4.14214C158.499 4.19384 158.526 4.27639 158.507 4.35504C158.489 4.43369 158.427 4.49485 158.348 4.51275L156.881 4.84591L156.324 6.24304C156.294 6.31817 156.224 6.36979 156.143 6.37618C156.063 6.38257 155.986 6.34262 155.944 6.27315L155.174 4.9812L153.673 4.88316C153.593 4.87789 153.522 4.82725 153.491 4.75255C153.46 4.67783 153.474 4.59201 153.527 4.53115L154.518 3.39952L154.147 1.94183Z" fill="#6ABE6A"/>
<path d="M157.316 1.48234C157.247 1.4401 157.16 1.44071 157.091 1.48389L155.819 2.28675L154.437 1.6942C154.363 1.66234 154.277 1.67543 154.215 1.72799C154.204 1.7372 156.881 4.84597 156.881 4.84597L158.348 4.5128C158.427 4.49488 158.489 4.43374 158.507 4.35509C158.526 4.27642 158.499 4.1939 158.437 4.14219L157.28 3.1807L157.416 1.68285C157.424 1.60228 157.385 1.52455 157.316 1.48234Z" fill="#0FF378"/>
</g>
<g clip-path="url(#clip14_145_28284)">
<path d="M11.5168 67.9712C11.5181 67.8655 11.5793 67.7697 11.6748 67.7241C11.7702 67.6785 11.8832 67.6911 11.9663 67.7564L13.5115 68.972L15.3889 68.3883C15.4898 68.3569 15.5999 68.3855 15.6727 68.4622C15.7455 68.5388 15.7685 68.6501 15.732 68.7494L15.0534 70.5946L16.1888 72.1997C16.2498 72.286 16.2566 72.3995 16.2062 72.4925C16.1558 72.5854 16.057 72.6417 15.9514 72.6377L13.9868 72.5625L12.811 74.1383C12.7478 74.223 12.642 74.2645 12.538 74.2454C12.434 74.2262 12.35 74.1496 12.3212 74.0479L11.7856 72.1562L9.92359 71.5249C9.82346 71.491 9.75127 71.4032 9.7374 71.2983C9.72352 71.1935 9.77036 71.0899 9.85821 71.0311L11.4918 69.9371L11.5168 67.9712Z" fill="#6ABE6A"/>
<path d="M15.6729 68.4622C15.6 68.3855 15.49 68.3569 15.389 68.3883L13.5116 68.9721L11.9664 67.7565C11.8833 67.6911 11.7703 67.6786 11.6749 67.7241C11.6582 67.7321 13.9869 72.5625 13.9869 72.5625L15.9516 72.6377C16.0572 72.6418 16.156 72.5855 16.2064 72.4925C16.2568 72.3996 16.25 72.2861 16.189 72.1998L15.0536 70.5946L15.7322 68.7494C15.7687 68.6502 15.7457 68.5388 15.6729 68.4622Z" fill="#0FF378"/>
</g>
<g clip-path="url(#clip15_145_28284)">
<path d="M11.6027 39.9311C11.6996 39.8888 11.8121 39.9052 11.8929 39.9734C11.9737 40.0416 12.0088 40.1498 11.9834 40.2524L11.5111 42.1609L12.8155 43.6319C12.8857 43.711 12.9048 43.8231 12.8649 43.921C12.825 44.0189 12.733 44.0857 12.6275 44.0932L10.6665 44.2338L9.67059 45.929C9.61704 46.0201 9.51636 46.073 9.41091 46.0653C9.30547 46.0576 9.21351 45.9907 9.17374 45.8928L8.43407 44.0711L6.51408 43.6478C6.41083 43.625 6.32946 43.5456 6.30418 43.443C6.2789 43.3403 6.3141 43.2322 6.39497 43.1641L7.89886 41.8977L7.7082 39.9409C7.69795 39.8357 7.74833 39.7337 7.83815 39.678C7.92798 39.6222 8.04168 39.6223 8.13144 39.6781L9.80058 40.7171L11.6027 39.9311Z" fill="#6ABE6A"/>
<path d="M12.865 43.921C12.9049 43.8231 12.8858 43.711 12.8156 43.6319L11.5112 42.1609L11.9835 40.2524C12.0089 40.1498 11.9738 40.0416 11.893 39.9734C11.8789 39.9615 8.43413 44.0712 8.43413 44.0712L9.17382 45.8928C9.2136 45.9907 9.30555 46.0576 9.41099 46.0653C9.51644 46.073 9.6171 46.0202 9.67066 45.929L10.6666 44.2338L12.6276 44.0933C12.7331 44.0857 12.8251 44.0189 12.865 43.921Z" fill="#0FF378"/>
</g>
<g clip-path="url(#clip16_145_28284)">
<path d="M199.446 50.4528C199.554 50.3736 199.697 50.3626 199.816 50.4245C199.935 50.4864 200.008 50.6103 200.005 50.7443L199.952 53.2347L201.973 54.6908C202.081 54.7691 202.136 54.9023 202.114 55.0344C202.092 55.1666 201.997 55.2747 201.869 55.3133L199.483 56.0318L198.723 58.4039C198.682 58.5315 198.572 58.6248 198.44 58.6446C198.307 58.6643 198.175 58.6072 198.099 58.4971L196.678 56.4508L194.187 56.4607C194.053 56.4613 193.931 56.3857 193.871 56.2658C193.811 56.1459 193.825 56.0025 193.906 55.8959L195.413 53.9126L194.634 51.5466C194.592 51.4194 194.626 51.2794 194.722 51.1855C194.817 51.0916 194.958 51.0601 195.084 51.1043L197.436 51.925L199.446 50.4528Z" fill="#6ABE6A"/>
<path d="M202.114 55.0344C202.136 54.9023 202.081 54.7691 201.973 54.6908L199.951 53.2347L200.005 50.7442C200.008 50.6103 199.935 50.4864 199.816 50.4245C199.795 50.4137 196.678 56.4508 196.678 56.4508L198.099 58.4972C198.175 58.6072 198.307 58.6644 198.44 58.6446C198.572 58.6248 198.682 58.5315 198.723 58.404L199.483 56.0318L201.868 55.3133C201.997 55.2747 202.092 55.1666 202.114 55.0344Z" fill="#0FF378"/>
</g>
<defs>
<clipPath id="clip0_145_28284">
<rect width="8.36896" height="8.36896" fill="white" transform="translate(174.569 43.0077) rotate(-32.3666)"/>
</clipPath>
<clipPath id="clip1_145_28284">
<rect width="8.36896" height="8.36896" fill="white" transform="translate(174.029 170.39) rotate(55.4285)"/>
</clipPath>
<clipPath id="clip2_145_28284">
<rect width="8.36896" height="8.36896" fill="white" transform="translate(185.438 113.846) rotate(4.70152)"/>
</clipPath>
<clipPath id="clip3_145_28284">
<rect width="7.64804" height="7.64804" fill="white" transform="translate(58.2139 3.39407) rotate(105.313)"/>
</clipPath>
<clipPath id="clip4_145_28284">
<rect width="8.36896" height="8.36896" fill="white" transform="translate(3.86475 98.8785) rotate(27.5039)"/>
</clipPath>
<clipPath id="clip5_145_28284">
<rect width="5.0531" height="5.0531" fill="white" transform="translate(13.6084 180.74) rotate(-40.5303)"/>
</clipPath>
<clipPath id="clip6_145_28284">
<rect width="5.0531" height="5.0531" fill="white" transform="translate(145.065 208.197) rotate(-40.5303)"/>
</clipPath>
<clipPath id="clip7_145_28284">
<rect width="5.0531" height="5.0531" fill="white" transform="translate(190.602 157.456) rotate(-40.5303)"/>
</clipPath>
<clipPath id="clip8_145_28284">
<rect width="5.0531" height="5.0531" fill="white" transform="translate(69.9219 217.971) rotate(34.6274)"/>
</clipPath>
<clipPath id="clip9_145_28284">
<rect width="5.0531" height="5.0531" fill="white" transform="translate(106.151 200.791) rotate(75.3545)"/>
</clipPath>
<clipPath id="clip10_145_28284">
<rect width="9.64982" height="9.64982" fill="white" transform="translate(60.7725 182.856) rotate(34.6274)"/>
</clipPath>
<clipPath id="clip11_145_28284">
<rect width="9.64982" height="9.64982" fill="white" transform="translate(22.1177 138.642) rotate(-0.488574)"/>
</clipPath>
<clipPath id="clip12_145_28284">
<rect width="6.24668" height="6.24668" fill="white" transform="translate(189.594 88.9268) rotate(-41.0426)"/>
</clipPath>
<clipPath id="clip13_145_28284">
<rect width="5.0531" height="5.0531" fill="white" transform="translate(152.221 3.28375) rotate(-40.5303)"/>
</clipPath>
<clipPath id="clip14_145_28284">
<rect width="6.60533" height="6.60533" fill="white" transform="translate(8.63086 69.0145) rotate(-25.5407)"/>
</clipPath>
<clipPath id="clip15_145_28284">
<rect width="6.60533" height="6.60533" fill="white" transform="translate(9.46484 37.73) rotate(40.1675)"/>
</clipPath>
<clipPath id="clip16_145_28284">
<rect width="8.36896" height="8.36896" fill="white" transform="translate(196.191 48.3257) rotate(27.5039)"/>
</clipPath>
</defs>
</svg>
