<svg width="27" height="22" viewBox="0 0 27 22" fill="none" xmlns="http://www.w3.org/2000/svg">
<path d="M23.625 4.4H5.625C4.65863 4.4 3.744 3.9908 3.11063 3.3011C3.72938 2.6257 4.62825 2.2 5.625 2.2H25.875C27.3465 2.1934 27.3454 0.0055 25.875 0H5.625C2.51888 0 0 2.4629 0 5.5V16.5C0 19.5371 2.51888 22 5.625 22H23.625C25.4891 22 27 20.5227 27 18.7V7.7C27 5.8773 25.4891 4.4 23.625 4.4ZM22.5 14.3C21.0285 14.2934 21.0285 12.1066 22.5 12.1C23.9715 12.1066 23.9715 14.2934 22.5 14.3Z" fill="#DCF5DB"/>
</svg>
